<svg xmlns="http://www.w3.org/2000/svg" style="display: none;">
<!-- custom heart logo  -->
<symbol id="heart-logo" width="24" height="24" viewBox="0 0 24 24" fill="none" stroke="currentColor" stroke-width="2" stroke-linecap="round" stroke-linejoin="round" class="lucide lucide-heart h-6 w-6 text-primary"><path d="M19 14c1.49-1.46 3-3.21 3-5.5A5.5 5.5 0 0 0 16.5 3c-1.76 0-3 .5-4.5 2-1.5-1.5-2.74-2-4.5-2A5.5 5.5 0 0 0 2 8.5c0 2.3 1.5 4.05 3 5.5l7 7Z"></path></symbol>
  <!-- Heart Icon -->
  <symbol id="heart" viewBox="0 0 24 24">
    <path fill="currentColor" d="M19 14c1.49-1.46 3-3.21 3-5.5A5.5 5.5 0 0 0 16.5 3c-1.76 0-3 .5-4.5 2-1.5-1.5-2.74-2-4.5-2A5.5 5.5 0 0 0 2 8.5c0 2.3 1.5 4.05 3 5.5l7 7Z"/>
  </symbol>

  <!-- Menu Icon -->
  <symbol id="menu" viewBox="0 0 24 24">
    <path fill="currentColor" d="M3 18h18v-2H3v2zm0-5h18v-2H3v2zm0-7v2h18V6H3z"/>
  </symbol>

  <!-- Close (X) Icon -->
  <symbol id="close" viewBox="0 0 24 24">
    <path fill="currentColor" d="M19 6.41L17.59 5 12 10.59 6.41 5 5 6.41 10.59 12 5 17.59 6.41 19 12 13.41 17.59 19 19 17.59 13.41 12z"/>
  </symbol>

  
  <!-- Chevron Down Icon -->
  <symbol id="chevron-down" viewBox="0 0 24 24" fill="none" stroke="currentColor" stroke-width="2" stroke-linecap="round" stroke-linejoin="round">
    <path d="m6 9 6 6 6-6"/>
  </symbol>
  <!-- Check Icon -->
  <symbol id="check" viewBox="0 0 24 24" fill="none" stroke="currentColor" stroke-width="2" stroke-linecap="round" stroke-linejoin="round">
    <path d="M20 6 9 17l-5-5"/>
  </symbol>
  <!-- Social Icons -->
  <symbol id="facebook" viewBox="0 0 24 24" fill="none" stroke="currentColor" stroke-width="2" stroke-linecap="round" stroke-linejoin="round">
    <path d="M18 2h-3a5 5 0 0 0-5 5v3H7v4h3v8h4v-8h3l1-4h-4V7a1 1 0 0 1 1-1h3z"/>
  </symbol>

  <symbol id="instagram" viewBox="0 0 24 24" fill="none" stroke="currentColor" stroke-width="2" stroke-linecap="round" stroke-linejoin="round">
    <rect x="2" y="2" width="20" height="20" rx="5" ry="5"/>
    <path d="M16 11.37A4 4 0 1 1 12.63 8 4 4 0 0 1 16 11.37z"/>
    <line x1="17.5" y1="6.5" x2="17.51" y2="6.5"/>
  </symbol>

  <symbol id="linkedin" viewBox="0 0 24 24" fill="none" stroke="currentColor" stroke-width="2" stroke-linecap="round" stroke-linejoin="round">
    <path d="M16 8a6 6 0 0 1 6 6v7h-4v-7a2 2 0 0 0-2-2 2 2 0 0 0-2 2v7h-4v-7a6 6 0 0 1 6-6z"/>
    <rect x="2" y="9" width="4" height="12"/>
    <circle cx="4" cy="4" r="2"/>
  </symbol>

  <!-- Contact Icons -->
  <symbol id="map-pin" viewBox="0 0 24 24" fill="none" stroke="currentColor" stroke-width="2" stroke-linecap="round" stroke-linejoin="round">
    <path d="M21 10c0 7-9 13-9 13s-9-6-9-13a9 9 0 0 1 18 0z"/>
    <circle cx="12" cy="10" r="3"/>
  </symbol>

  <symbol id="phone" viewBox="0 0 24 24" fill="none" stroke="currentColor" stroke-width="2" stroke-linecap="round" stroke-linejoin="round">
     <path d="M22 16.92v3a2 2 0 0 1-2.18 2 19.79 19.79 0 0 1-8.63-3.07 19.5 19.5 0 0 1-6-6 19.79 19.79 0 0 1-3.07-8.67A2 2 0 0 1 4.11 2h3a2 2 0 0 1 2 1.72 12.84 12.84 0 0 0 .7 2.81 2 2 0 0 1-.45 2.11L8.09 9.91a16 16 0 0 0 6 6l1.27-1.27a2 2 0 0 1 2.11-.45 12.84 12.84 0 0 0 2.81.7A2 2 0 0 1 22 16.92z"/>
  </symbol>

  <symbol id="mail" viewBox="0 0 24 24" fill="none" stroke="currentColor" stroke-width="2" stroke-linecap="round" stroke-linejoin="round">
    <path d="M4 4h16c1.1 0 2 .9 2 2v12c0 1.1-.9 2-2 2H4c-1.1 0-2-.9-2-2V6c0-1.1.9-2 2-2z"/>
    <polyline points="22,6 12,13 2,6"/>
  </symbol>
  
  <symbol id="send" viewBox="0 0 24 24" fill="none" stroke="currentColor" stroke-width="2" stroke-linecap="round" stroke-linejoin="round">
    <line x1="22" y1="2" x2="11" y2="13"/>
    <polygon points="22 2 15 22 11 13 2 9 22 2"/>
  </symbol>
  <!-- Testimonial Icons -->
  <symbol id="star" viewBox="0 0 24 24" fill="currentColor" stroke="none">
    <path d="M12 2l3.09 6.26L22 9.27l-5 4.87 1.18 6.88L12 17.77l-6.18 3.25L7 14.14 2 9.27l6.91-1.01L12 2z"/>
  </symbol>
  <symbol id="quote" viewBox="0 0 24 24" fill="currentColor" stroke="none">
    <path d="M6 17h3l2-4V7H5v6h3L6 17zM14 17h3l2-4V7h-6v6h3L14 17z"/>
  </symbol>
  <!-- Medical Services Icons -->
  <symbol id="activity" viewBox="0 0 24 24" fill="none" stroke="currentColor" stroke-width="2" stroke-linecap="round" stroke-linejoin="round">
    <polyline points="22 12 18 12 15 21 9 3 6 12 2 12"/>
  </symbol>
  <symbol id="stethoscope" viewBox="0 0 24 24" fill="none" stroke="currentColor" stroke-width="2" stroke-linecap="round" stroke-linejoin="round">
    <path d="M4.8 2.3A.3.3 0 1 0 5 2H4a2 2 0 0 0-2 2v5a6 6 0 0 0 6 6v0a6 6 0 0 0 6-6V4a2 2 0 0 0-2-2h-1a.2.2 0 1 0 .3.3"/>
    <path d="M8 15v1a6 6 0 0 0 6 6v0a6 6 0 0 0 6-6v-4"/>
    <circle cx="20" cy="10" r="2"/>
  </symbol>
  <symbol id="flask" viewBox="0 0 24 24" fill="none" stroke="currentColor" stroke-width="2" stroke-linecap="round" stroke-linejoin="round">
    <path d="M10 2v7.527a2 2 0 0 1-.211.896L4.72 20.55a1 1 0 0 0 .9 1.45h12.76a1 1 0 0 0 .9-1.45l-5.069-10.127A2 2 0 0 1 14 9.527V2"/>
    <line x1="8.5" x2="15.5" y1="2" y2="2"/>
    <path d="M8.5 2h7"/>
  </symbol>
  <symbol id="users" viewBox="0 0 24 24" fill="none" stroke="currentColor" stroke-width="2" stroke-linecap="round" stroke-linejoin="round">
    <path d="M16 21v-2a4 4 0 0 0-4-4H6a4 4 0 0 0-4 4v2"/>
    <circle cx="9" cy="7" r="4"/>
    <path d="M22 21v-2a4 4 0 0 0-3-3.87"/>
    <path d="M16 3.13a4 4 0 0 1 0 7.75"/>
  </symbol>
  <symbol id="bone" viewBox="0 0 24 24" fill="none" stroke="currentColor" stroke-width="2" stroke-linecap="round" stroke-linejoin="round">
    <path d="M17 10c.8 0 1.5.5 1.5 1.5 0 1.3-1.6 2-2.8 2-2.1 0-3.1-3.6-2.7-5.1.7.4 1.7.5 2.5.1zm-10 4c-.8 0-1.5-.5-1.5-1.5 0-1.3 1.6-2 2.8-2 2.1 0 3.1 3.6 2.7 5.1-.7-.4-1.7-.5-2.5-.1z"/>
    <path d="m11.5 14.5 3.5-3.5"/>
    <path d="m5 13.5 14-8"/>
    <path d="m20 10-6 7.5"/>
  </symbol>
  <symbol id="ambulance" viewBox="0 0 24 24" fill="none" stroke="currentColor" stroke-width="2" stroke-linecap="round" stroke-linejoin="round">
    <path d="M10 10H6"/>
    <path d="M8 8v4"/>
    <path d="M12 18h8a2 2 0 0 0 2-2V7a2 2 0 0 0-2-2h-3"/>
    <path d="M3 13v4a2 2 0 0 0 2 2h4"/>
    <path d="M20 18a2 2 0 1 1-4 0"/>
    <path d="M10 18a2 2 0 1 1-4 0"/>
    <path d="M5 4h8l2 5h7"/>
  </symbol>
  
  <symbol id="apple" viewBox="0 0 24 24" fill="currentColor">
    <path d="M17.05 20.28c-.96.95-2.05 2.1-3.32 2.1-.55 0-.75-.16-1.2-.36-.46-.2-.93-.44-1.63-.44-.68 0-1.16.23-1.65.44-.43.19-.64.36-1.19.36-1.24 0-2.42-1.2-3.35-2.1-1.92-1.9-2.92-4.9-2.92-7.53 0-2.58 1.42-4.16 3.08-4.16.82 0 1.54.43 2.16.43.5 0 .9-.22 1.57-.22.7 0 1.3.22 1.9.22h.02c1.37 0 2.58 1 3.1 2.44-2.22.8-2.6 3.42-1.24 4.5.6.48 1.38.7 2.06.7.7 0 1.4-.2 1.8-.45-.1.53-.17.9-.27 1.2M13.2 2.12c1.24 0 2.58 1.3 2.58 2.58 0 1.2-.7 2.2-1.6 2.5-1-.1-2-.6-2.5-1.5-.7-.8-.7-1.4-.7-2.3 0-.1 2.2-.1 2.2-.1z"/>
  </symbol>

  <symbol id="google-play" viewBox="0 0 24 24" fill="currentColor">
    <path d="M3 20.5V3.5c0-.59.34-1.11.84-1.35L13.69 12 3.84 21.85c-.5-.24-.84-.76-.84-1.35m13.81-5.38l1.85 2.15L5.2 25.04 13.69 12l3.12 3.12M13.69 12l4.97-5.27-1.85 2.15L13.69 12m0 0L5.2 1.04 18.66 6.73 13.69 12z"/>
  </symbol>

  <symbol id="search" viewBox="0 0 24 24" fill="none" stroke="currentColor" stroke-width="2" stroke-linecap="round" stroke-linejoin="round">
    <circle cx="11" cy="11" r="8"/>
    <path d="m21 21-4.3-4.3"/>
  </symbol>

  <symbol id="calendar" viewBox="0 0 24 24" fill="none" stroke="currentColor" stroke-width="2" stroke-linecap="round" stroke-linejoin="round">
    <rect width="18" height="18" x="3" y="4" rx="2" ry="2"/>
    <path d="M16 2v4"/>
    <path d="M8 2v4"/>
    <path d="M3 10h18"/>
  </symbol>

  <symbol id="user" width="800px" height="800px" viewBox="0 0 24 24" fill="none" xmlns="http://www.w3.org/2000/svg">
<circle cx="12" cy="9" r="3" stroke="#1C274C" stroke-width="1.5"/>
<circle cx="12" cy="12" r="10" stroke="#1C274C" stroke-width="1.5"/>
<path d="M17.9691 20C17.81 17.1085 16.9247 15 11.9999 15C7.07521 15 6.18991 17.1085 6.03076 20" stroke="#1C274C" stroke-width="1.5" stroke-linecap="round"/>
</symbol>
  
  <symbol id="building" viewBox="0 0 24 24" fill="none" stroke="currentColor" stroke-width="2" stroke-linecap="round" stroke-linejoin="round">
    <rect width="16" height="20" x="4" y="2" rx="2" ry="2"/>
    <path d="M9 22v-4h6v4"/>
    <path d="M8 6h.01"/>
    <path d="M16 6h.01"/>
    <path d="M8 10h.01"/>
    <path d="M16 10h.01"/>
    <path d="M8 14h.01"/>
    <path d="M16 14h.01"/>
  </symbol>

  <symbol id="user-x" viewBox="0 0 24 24" fill="none" stroke="currentColor" stroke-width="2" stroke-linecap="round" stroke-linejoin="round">
    <path d="M16 21v-2a4 4 0 0 0-4-4H6a4 4 0 0 0-4 4v2"/>
    <circle cx="9" cy="7" r="4"/>
    <line x1="17" x2="22" y1="8" y2="13"/>
    <line x1="22" x2="17" y1="8" y2="13"/>
  </symbol>

  <symbol id="check-circle" viewBox="0 0 24 24" fill="none" stroke="currentColor" stroke-width="2" stroke-linecap="round" stroke-linejoin="round">
    <path d="M22 11.08V12a10 10 0 1 1-5.93-9.14"/>
    <polyline points="22 4 12 14.01 9 11.01"/>
  </symbol>

  <symbol id="chevron-right" viewBox="0 0 24 24" fill="none" stroke="currentColor" stroke-width="2" stroke-linecap="round" stroke-linejoin="round">
    <path d="m9 18 6-6-6-6"/>
  </symbol>


  <symbol id="edit-pencil" fill="#000000" width="800px" height="800px" viewBox="0 0 200 200" data-name="Layer 1" id="Layer_1" xmlns="http://www.w3.org/2000/svg"><title/><path d="M170,70.5a10,10,0,0,0-10,10V140a20.06,20.06,0,0,1-20,20H60a20.06,20.06,0,0,1-20-20V60A20.06,20.06,0,0,1,60,40h59.5a10,10,0,0,0,0-20H60A40.12,40.12,0,0,0,20,60v80a40.12,40.12,0,0,0,40,40h80a40.12,40.12,0,0,0,40-40V80.5A10,10,0,0,0,170,70.5Zm-77,39a9.67,9.67,0,0,0,14,0L164.5,52a9.9,9.9,0,0,0-14-14L93,95.5A9.67,9.67,0,0,0,93,109.5Z"/></symbol>

  <symbol id='users' fill="#000000" width="800px" height="800px" viewBox="0 0 32 32" version="1.1" xmlns="http://www.w3.org/2000/svg">
  <path d="M16 21.416c-5.035 0.022-9.243 3.537-10.326 8.247l-0.014 0.072c-0.018 0.080-0.029 0.172-0.029 0.266 0 0.69 0.56 1.25 1.25 1.25 0.596 0 1.095-0.418 1.22-0.976l0.002-0.008c0.825-3.658 4.047-6.35 7.897-6.35s7.073 2.692 7.887 6.297l0.010 0.054c0.127 0.566 0.625 0.982 1.221 0.982 0.69 0 1.25-0.559 1.25-1.25 0-0.095-0.011-0.187-0.031-0.276l0.002 0.008c-1.098-4.78-5.305-8.295-10.337-8.316h-0.002zM9.164 11.102c0 0 0 0 0 0 2.858 0 5.176-2.317 5.176-5.176s-2.317-5.176-5.176-5.176c-2.858 0-5.176 2.317-5.176 5.176v0c0.004 2.857 2.319 5.172 5.175 5.176h0zM9.164 3.25c0 0 0 0 0 0 1.478 0 2.676 1.198 2.676 2.676s-1.198 2.676-2.676 2.676c-1.478 0-2.676-1.198-2.676-2.676v0c0.002-1.477 1.199-2.674 2.676-2.676h0zM22.926 11.102c2.858 0 5.176-2.317 5.176-5.176s-2.317-5.176-5.176-5.176c-2.858 0-5.176 2.317-5.176 5.176v0c0.004 2.857 2.319 5.172 5.175 5.176h0zM22.926 3.25c1.478 0 2.676 1.198 2.676 2.676s-1.198 2.676-2.676 2.676c-1.478 0-2.676-1.198-2.676-2.676v0c0.002-1.477 1.199-2.674 2.676-2.676h0zM31.311 19.734c-0.864-4.111-4.46-7.154-8.767-7.154-0.395 0-0.784 0.026-1.165 0.075l0.045-0.005c-0.93-2.116-3.007-3.568-5.424-3.568-2.414 0-4.49 1.448-5.407 3.524l-0.015 0.038c-0.266-0.034-0.58-0.057-0.898-0.063l-0.009-0c-4.33 0.019-7.948 3.041-8.881 7.090l-0.012 0.062c-0.018 0.080-0.029 0.173-0.029 0.268 0 0.691 0.56 1.251 1.251 1.251 0.596 0 1.094-0.417 1.22-0.975l0.002-0.008c0.684-2.981 3.309-5.174 6.448-5.186h0.001c0.144 0 0.282 0.020 0.423 0.029 0.056 3.218 2.679 5.805 5.905 5.805 3.224 0 5.845-2.584 5.905-5.794l0-0.006c0.171-0.013 0.339-0.035 0.514-0.035 3.14 0.012 5.765 2.204 6.442 5.14l0.009 0.045c0.126 0.567 0.625 0.984 1.221 0.984 0.69 0 1.249-0.559 1.249-1.249 0-0.094-0.010-0.186-0.030-0.274l0.002 0.008zM16 18.416c-0 0-0 0-0.001 0-1.887 0-3.417-1.53-3.417-3.417s1.53-3.417 3.417-3.417c1.887 0 3.417 1.53 3.417 3.417 0 0 0 0 0 0.001v-0c-0.003 1.886-1.53 3.413-3.416 3.416h-0z"></path>
  </symbol>

  <symbol id='statistics' width="800px" height="800px" viewBox="0 0 24 24" xmlns="http://www.w3.org/2000/svg"><defs><style>.a{fill:none;stroke:#000000;stroke-linecap:round;stroke-linejoin:round;stroke-width:1.5px;fill-rule:evenodd;}</style></defs><path class="a" d="M12,2A10,10,0,1,0,22,12H12Z"/><path class="a" d="M15,9h6.54077A10.02174,10.02174,0,0,0,15,2.45923Z"/></symbol>
</svg>
