<svg xmlns="http://www.w3.org/2000/svg" style="display: none;">
<!-- custom heart logo  -->
<symbol id="heart-logo" width="24" height="24" viewBox="0 0 24 24" fill="none" stroke="currentColor" stroke-width="2" stroke-linecap="round" stroke-linejoin="round" class="lucide lucide-heart h-6 w-6 text-primary"><path d="M19 14c1.49-1.46 3-3.21 3-5.5A5.5 5.5 0 0 0 16.5 3c-1.76 0-3 .5-4.5 2-1.5-1.5-2.74-2-4.5-2A5.5 5.5 0 0 0 2 8.5c0 2.3 1.5 4.05 3 5.5l7 7Z"></path></symbol>
  <!-- Heart Icon -->
  <symbol id="heart" viewBox="0 0 24 24">
    <path fill="currentColor" d="M19 14c1.49-1.46 3-3.21 3-5.5A5.5 5.5 0 0 0 16.5 3c-1.76 0-3 .5-4.5 2-1.5-1.5-2.74-2-4.5-2A5.5 5.5 0 0 0 2 8.5c0 2.3 1.5 4.05 3 5.5l7 7Z"/>
  </symbol>

  <!-- Menu Icon -->
  <symbol id="menu" viewBox="0 0 24 24">
    <path fill="currentColor" d="M3 18h18v-2H3v2zm0-5h18v-2H3v2zm0-7v2h18V6H3z"/>
  </symbol>

  <!-- Close (X) Icon -->
  <symbol id="close" viewBox="0 0 24 24">
    <path fill="currentColor" d="M19 6.41L17.59 5 12 10.59 6.41 5 5 6.41 10.59 12 5 17.59 6.41 19 12 13.41 17.59 19 19 17.59 13.41 12z"/>
  </symbol>

  
  <!-- Chevron Down Icon -->
  <symbol id="chevron-down" viewBox="0 0 24 24" fill="none" stroke="currentColor" stroke-width="2" stroke-linecap="round" stroke-linejoin="round">
    <path d="m6 9 6 6 6-6"/>
  </symbol>
  <!-- Check Icon -->
  <symbol id="check" viewBox="0 0 24 24" fill="none" stroke="currentColor" stroke-width="2" stroke-linecap="round" stroke-linejoin="round">
    <path d="M20 6 9 17l-5-5"/>
  </symbol>
  <!-- Social Icons -->
  <symbol id="facebook" viewBox="0 0 24 24" fill="none" stroke="currentColor" stroke-width="2" stroke-linecap="round" stroke-linejoin="round">
    <path d="M18 2h-3a5 5 0 0 0-5 5v3H7v4h3v8h4v-8h3l1-4h-4V7a1 1 0 0 1 1-1h3z"/>
  </symbol>

  <symbol id="instagram" viewBox="0 0 24 24" fill="none" stroke="currentColor" stroke-width="2" stroke-linecap="round" stroke-linejoin="round">
    <rect x="2" y="2" width="20" height="20" rx="5" ry="5"/>
    <path d="M16 11.37A4 4 0 1 1 12.63 8 4 4 0 0 1 16 11.37z"/>
    <line x1="17.5" y1="6.5" x2="17.51" y2="6.5"/>
  </symbol>

  <symbol id="linkedin" viewBox="0 0 24 24" fill="none" stroke="currentColor" stroke-width="2" stroke-linecap="round" stroke-linejoin="round">
    <path d="M16 8a6 6 0 0 1 6 6v7h-4v-7a2 2 0 0 0-2-2 2 2 0 0 0-2 2v7h-4v-7a6 6 0 0 1 6-6z"/>
    <rect x="2" y="9" width="4" height="12"/>
    <circle cx="4" cy="4" r="2"/>
  </symbol>

  <!-- Contact Icons -->
  <symbol id="map-pin" viewBox="0 0 24 24" fill="none" stroke="currentColor" stroke-width="2" stroke-linecap="round" stroke-linejoin="round">
    <path d="M21 10c0 7-9 13-9 13s-9-6-9-13a9 9 0 0 1 18 0z"/>
    <circle cx="12" cy="10" r="3"/>
  </symbol>

  <symbol id="phone" viewBox="0 0 24 24" fill="none" stroke="currentColor" stroke-width="2" stroke-linecap="round" stroke-linejoin="round">
     <path d="M22 16.92v3a2 2 0 0 1-2.18 2 19.79 19.79 0 0 1-8.63-3.07 19.5 19.5 0 0 1-6-6 19.79 19.79 0 0 1-3.07-8.67A2 2 0 0 1 4.11 2h3a2 2 0 0 1 2 1.72 12.84 12.84 0 0 0 .7 2.81 2 2 0 0 1-.45 2.11L8.09 9.91a16 16 0 0 0 6 6l1.27-1.27a2 2 0 0 1 2.11-.45 12.84 12.84 0 0 0 2.81.7A2 2 0 0 1 22 16.92z"/>
  </symbol>

  <symbol id="mail" viewBox="0 0 24 24" fill="none" stroke="currentColor" stroke-width="2" stroke-linecap="round" stroke-linejoin="round">
    <path d="M4 4h16c1.1 0 2 .9 2 2v12c0 1.1-.9 2-2 2H4c-1.1 0-2-.9-2-2V6c0-1.1.9-2 2-2z"/>
    <polyline points="22,6 12,13 2,6"/>
  </symbol>
  
  <symbol id="send" viewBox="0 0 24 24" fill="none" stroke="currentColor" stroke-width="2" stroke-linecap="round" stroke-linejoin="round">
    <line x1="22" y1="2" x2="11" y2="13"/>
    <polygon points="22 2 15 22 11 13 2 9 22 2"/>
  </symbol>
  <!-- Testimonial Icons -->
  <symbol id="star" viewBox="0 0 24 24" fill="currentColor" stroke="none">
    <path d="M12 2l3.09 6.26L22 9.27l-5 4.87 1.18 6.88L12 17.77l-6.18 3.25L7 14.14 2 9.27l6.91-1.01L12 2z"/>
  </symbol>
  <symbol id="quote" viewBox="0 0 24 24" fill="currentColor" stroke="none">
    <path d="M6 17h3l2-4V7H5v6h3L6 17zM14 17h3l2-4V7h-6v6h3L14 17z"/>
  </symbol>
  <!-- Medical Services Icons -->
  <symbol id="activity" viewBox="0 0 24 24" fill="none" stroke="currentColor" stroke-width="2" stroke-linecap="round" stroke-linejoin="round">
    <polyline points="22 12 18 12 15 21 9 3 6 12 2 12"/>
  </symbol>
  <symbol id="stethoscope" viewBox="0 0 24 24" fill="none" stroke="currentColor" stroke-width="2" stroke-linecap="round" stroke-linejoin="round">
    <path d="M4.8 2.3A.3.3 0 1 0 5 2H4a2 2 0 0 0-2 2v5a6 6 0 0 0 6 6v0a6 6 0 0 0 6-6V4a2 2 0 0 0-2-2h-1a.2.2 0 1 0 .3.3"/>
    <path d="M8 15v1a6 6 0 0 0 6 6v0a6 6 0 0 0 6-6v-4"/>
    <circle cx="20" cy="10" r="2"/>
  </symbol>
  <symbol id="flask" viewBox="0 0 24 24" fill="none" stroke="currentColor" stroke-width="2" stroke-linecap="round" stroke-linejoin="round">
    <path d="M10 2v7.527a2 2 0 0 1-.211.896L4.72 20.55a1 1 0 0 0 .9 1.45h12.76a1 1 0 0 0 .9-1.45l-5.069-10.127A2 2 0 0 1 14 9.527V2"/>
    <line x1="8.5" x2="15.5" y1="2" y2="2"/>
    <path d="M8.5 2h7"/>
  </symbol>
  <symbol id="users" viewBox="0 0 24 24" fill="none" stroke="currentColor" stroke-width="2" stroke-linecap="round" stroke-linejoin="round">
    <path d="M16 21v-2a4 4 0 0 0-4-4H6a4 4 0 0 0-4 4v2"/>
    <circle cx="9" cy="7" r="4"/>
    <path d="M22 21v-2a4 4 0 0 0-3-3.87"/>
    <path d="M16 3.13a4 4 0 0 1 0 7.75"/>
  </symbol>
  <symbol id="bone" viewBox="0 0 24 24" fill="none" stroke="currentColor" stroke-width="2" stroke-linecap="round" stroke-linejoin="round">
    <path d="M17 10c.8 0 1.5.5 1.5 1.5 0 1.3-1.6 2-2.8 2-2.1 0-3.1-3.6-2.7-5.1.7.4 1.7.5 2.5.1zm-10 4c-.8 0-1.5-.5-1.5-1.5 0-1.3 1.6-2 2.8-2 2.1 0 3.1 3.6 2.7 5.1-.7-.4-1.7-.5-2.5-.1z"/>
    <path d="m11.5 14.5 3.5-3.5"/>
    <path d="m5 13.5 14-8"/>
    <path d="m20 10-6 7.5"/>
  </symbol>
  <symbol id="ambulance" viewBox="0 0 24 24" fill="none" stroke="currentColor" stroke-width="2" stroke-linecap="round" stroke-linejoin="round">
    <path d="M10 10H6"/>
    <path d="M8 8v4"/>
    <path d="M12 18h8a2 2 0 0 0 2-2V7a2 2 0 0 0-2-2h-3"/>
    <path d="M3 13v4a2 2 0 0 0 2 2h4"/>
    <path d="M20 18a2 2 0 1 1-4 0"/>
    <path d="M10 18a2 2 0 1 1-4 0"/>
    <path d="M5 4h8l2 5h7"/>
  </symbol>
  
  <symbol id="apple" viewBox="0 0 24 24" fill="currentColor">
    <path d="M17.05 20.28c-.96.95-2.05 2.1-3.32 2.1-.55 0-.75-.16-1.2-.36-.46-.2-.93-.44-1.63-.44-.68 0-1.16.23-1.65.44-.43.19-.64.36-1.19.36-1.24 0-2.42-1.2-3.35-2.1-1.92-1.9-2.92-4.9-2.92-7.53 0-2.58 1.42-4.16 3.08-4.16.82 0 1.54.43 2.16.43.5 0 .9-.22 1.57-.22.7 0 1.3.22 1.9.22h.02c1.37 0 2.58 1 3.1 2.44-2.22.8-2.6 3.42-1.24 4.5.6.48 1.38.7 2.06.7.7 0 1.4-.2 1.8-.45-.1.53-.17.9-.27 1.2M13.2 2.12c1.24 0 2.58 1.3 2.58 2.58 0 1.2-.7 2.2-1.6 2.5-1-.1-2-.6-2.5-1.5-.7-.8-.7-1.4-.7-2.3 0-.1 2.2-.1 2.2-.1z"/>
  </symbol>

  <symbol id="google-play" viewBox="0 0 24 24" fill="currentColor">
    <path d="M3 20.5V3.5c0-.59.34-1.11.84-1.35L13.69 12 3.84 21.85c-.5-.24-.84-.76-.84-1.35m13.81-5.38l1.85 2.15L5.2 25.04 13.69 12l3.12 3.12M13.69 12l4.97-5.27-1.85 2.15L13.69 12m0 0L5.2 1.04 18.66 6.73 13.69 12z"/>
  </symbol>

  <symbol id="search" viewBox="0 0 24 24" fill="none" stroke="currentColor" stroke-width="2" stroke-linecap="round" stroke-linejoin="round">
    <circle cx="11" cy="11" r="8"/>
    <path d="m21 21-4.3-4.3"/>
  </symbol>

  <symbol id="calendar" viewBox="0 0 24 24" fill="none" stroke="currentColor" stroke-width="2" stroke-linecap="round" stroke-linejoin="round">
    <rect width="18" height="18" x="3" y="4" rx="2" ry="2"/>
    <path d="M16 2v4"/>
    <path d="M8 2v4"/>
    <path d="M3 10h18"/>
  </symbol>
</svg>
